<svg width="159" height="29" viewBox="0 0 159 29" fill="none" xmlns="http://www.w3.org/2000/svg">
  <path d="M61.464 13.672C61.464 14.584 61.576 15.416 61.8 16.168C62.024 16.904 62.344 17.536 62.76 18.064C63.192 18.576 63.712 18.976 64.32 19.264C64.928 19.552 65.616 19.696 66.384 19.696C67.136 19.696 67.816 19.552 68.424 19.264C69.032 18.976 69.544 18.576 69.96 18.064C70.392 17.536 70.72 16.904 70.944 16.168C71.168 15.416 71.28 14.584 71.28 13.672C71.28 12.76 71.168 11.936 70.944 11.2C70.72 10.448 70.392 9.816 69.96 9.304C69.544 8.776 69.032 8.368 68.424 8.08C67.816 7.792 67.136 7.648 66.384 7.648C65.616 7.648 64.928 7.792 64.32 8.08C63.712 8.368 63.192 8.776 62.76 9.304C62.344 9.832 62.024 10.464 61.8 11.2C61.576 11.936 61.464 12.76 61.464 13.672ZM74.448 13.672C74.448 15.096 74.232 16.352 73.8 17.44C73.384 18.528 72.808 19.44 72.072 20.176C71.352 20.896 70.504 21.44 69.528 21.808C68.552 22.176 67.512 22.36 66.408 22.36C65.304 22.36 64.256 22.176 63.264 21.808C62.288 21.44 61.432 20.896 60.696 20.176C59.976 19.44 59.4 18.528 58.968 17.44C58.536 16.352 58.32 15.096 58.32 13.672C58.32 12.248 58.536 11 58.968 9.928C59.4 8.84 59.984 7.928 60.72 7.192C61.472 6.456 62.336 5.904 63.312 5.536C64.288 5.168 65.32 4.984 66.408 4.984C67.496 4.984 68.528 5.168 69.504 5.536C70.48 5.904 71.328 6.456 72.048 7.192C72.784 7.928 73.368 8.84 73.8 9.928C74.232 11 74.448 12.248 74.448 13.672ZM84.9234 12.064C84.6834 11.984 84.3474 11.904 83.9154 11.824C83.4994 11.728 83.0114 11.68 82.4514 11.68C82.1314 11.68 81.7874 11.712 81.4194 11.776C81.0674 11.84 80.8194 11.896 80.6754 11.944V22H77.7714V10.048C78.3314 9.84 79.0274 9.648 79.8594 9.472C80.7074 9.28 81.6434 9.184 82.6674 9.184C82.8594 9.184 83.0834 9.2 83.3394 9.232C83.5954 9.248 83.8514 9.28 84.1074 9.328C84.3634 9.36 84.6114 9.408 84.8514 9.472C85.0914 9.52 85.2834 9.568 85.4274 9.616L84.9234 12.064ZM90.5291 22H87.6251V9.448H90.5291V22ZM90.8411 5.776C90.8411 6.32 90.6651 6.752 90.3131 7.072C89.9611 7.392 89.5451 7.552 89.0651 7.552C88.5691 7.552 88.1451 7.392 87.7931 7.072C87.4411 6.752 87.2651 6.32 87.2651 5.776C87.2651 5.216 87.4411 4.776 87.7931 4.456C88.1451 4.136 88.5691 3.976 89.0651 3.976C89.5451 3.976 89.9611 4.136 90.3131 4.456C90.6651 4.776 90.8411 5.216 90.8411 5.776ZM96.6639 15.4C96.6639 16.632 96.9279 17.536 97.4559 18.112C97.9999 18.672 98.6959 18.952 99.5439 18.952C100.008 18.952 100.44 18.888 100.84 18.76C101.256 18.632 101.592 18.48 101.848 18.304V11.8C101.64 11.752 101.384 11.712 101.08 11.68C100.776 11.632 100.392 11.608 99.9279 11.608C98.8719 11.608 98.0639 11.96 97.5039 12.664C96.9439 13.352 96.6639 14.264 96.6639 15.4ZM104.752 20.728C104.752 22.728 104.24 24.192 103.216 25.12C102.208 26.048 100.656 26.512 98.5599 26.512C97.7919 26.512 97.0399 26.448 96.3039 26.32C95.5839 26.192 94.9279 26.024 94.3359 25.816L94.8639 23.344C95.3599 23.552 95.9199 23.72 96.5439 23.848C97.1839 23.976 97.8719 24.04 98.6079 24.04C99.7759 24.04 100.608 23.8 101.104 23.32C101.6 22.84 101.848 22.128 101.848 21.184V20.704C101.56 20.848 101.176 20.992 100.696 21.136C100.232 21.28 99.6959 21.352 99.0879 21.352C98.2879 21.352 97.5519 21.224 96.8799 20.968C96.2239 20.712 95.6559 20.336 95.1759 19.84C94.7119 19.344 94.3439 18.728 94.0719 17.992C93.8159 17.24 93.6879 16.376 93.6879 15.4C93.6879 14.488 93.8239 13.648 94.0959 12.88C94.3839 12.112 94.7919 11.456 95.3199 10.912C95.8639 10.368 96.5199 9.944 97.2879 9.64C98.0559 9.336 98.9279 9.184 99.9039 9.184C100.848 9.184 101.744 9.256 102.592 9.4C103.44 9.544 104.16 9.696 104.752 9.856V20.728ZM113.012 19.96C113.908 19.96 114.588 19.912 115.052 19.816V16.6C114.892 16.552 114.66 16.504 114.356 16.456C114.052 16.408 113.716 16.384 113.348 16.384C113.028 16.384 112.7 16.408 112.364 16.456C112.044 16.504 111.748 16.592 111.476 16.72C111.22 16.848 111.012 17.032 110.852 17.272C110.692 17.496 110.612 17.784 110.612 18.136C110.612 18.824 110.828 19.304 111.26 19.576C111.692 19.832 112.276 19.96 113.012 19.96ZM112.772 9.136C113.732 9.136 114.54 9.256 115.196 9.496C115.852 9.736 116.372 10.072 116.756 10.504C117.156 10.936 117.436 11.464 117.596 12.088C117.772 12.696 117.86 13.368 117.86 14.104V21.712C117.412 21.808 116.732 21.92 115.82 22.048C114.924 22.192 113.908 22.264 112.772 22.264C112.02 22.264 111.332 22.192 110.708 22.048C110.084 21.904 109.548 21.672 109.1 21.352C108.668 21.032 108.324 20.616 108.068 20.104C107.828 19.592 107.708 18.96 107.708 18.208C107.708 17.488 107.844 16.88 108.116 16.384C108.404 15.888 108.788 15.488 109.268 15.184C109.748 14.864 110.3 14.64 110.924 14.512C111.564 14.368 112.228 14.296 112.916 14.296C113.236 14.296 113.572 14.32 113.924 14.368C114.276 14.4 114.652 14.464 115.052 14.56V14.08C115.052 13.744 115.012 13.424 114.932 13.12C114.852 12.816 114.708 12.552 114.5 12.328C114.308 12.088 114.044 11.904 113.708 11.776C113.388 11.648 112.98 11.584 112.484 11.584C111.812 11.584 111.196 11.632 110.636 11.728C110.076 11.824 109.62 11.936 109.268 12.064L108.908 9.712C109.276 9.584 109.812 9.456 110.516 9.328C111.22 9.2 111.972 9.136 112.772 9.136ZM128.719 15.4C128.719 14.088 128.551 13.144 128.215 12.568C127.895 11.976 127.287 11.68 126.391 11.68C126.071 11.68 125.719 11.704 125.335 11.752C124.951 11.8 124.663 11.84 124.471 11.872V22H121.567V9.856C122.127 9.696 122.855 9.544 123.751 9.4C124.663 9.256 125.623 9.184 126.631 9.184C127.495 9.184 128.199 9.296 128.743 9.52C129.303 9.744 129.767 10.04 130.135 10.408C130.311 10.28 130.535 10.144 130.807 10C131.079 9.856 131.383 9.728 131.719 9.616C132.055 9.488 132.407 9.384 132.775 9.304C133.159 9.224 133.543 9.184 133.927 9.184C134.903 9.184 135.703 9.328 136.327 9.616C136.967 9.888 137.463 10.28 137.815 10.792C138.183 11.288 138.431 11.896 138.559 12.616C138.703 13.32 138.775 14.096 138.775 14.944V22H135.871V15.4C135.871 14.088 135.711 13.144 135.391 12.568C135.071 11.976 134.455 11.68 133.543 11.68C133.079 11.68 132.639 11.76 132.223 11.92C131.807 12.064 131.495 12.208 131.287 12.352C131.415 12.752 131.503 13.176 131.551 13.624C131.599 14.072 131.623 14.552 131.623 15.064V22H128.719V15.4ZM145.41 22H142.506V9.448H145.41V22ZM145.722 5.776C145.722 6.32 145.546 6.752 145.194 7.072C144.842 7.392 144.426 7.552 143.946 7.552C143.45 7.552 143.026 7.392 142.674 7.072C142.322 6.752 142.146 6.32 142.146 5.776C142.146 5.216 142.322 4.776 142.674 4.456C143.026 4.136 143.45 3.976 143.946 3.976C144.426 3.976 144.842 4.136 145.194 4.456C145.546 4.776 145.722 5.216 145.722 5.776Z" fill="black" fill-opacity="0.87"/>
  <path d="M152.529 20.416C152.529 20.976 152.337 21.432 151.953 21.784C151.585 22.136 151.137 22.312 150.609 22.312C150.065 22.312 149.609 22.136 149.241 21.784C148.873 21.432 148.689 20.976 148.689 20.416C148.689 19.856 148.873 19.4 149.241 19.048C149.609 18.68 150.065 18.496 150.609 18.496C151.137 18.496 151.585 18.68 151.953 19.048C152.337 19.4 152.529 19.856 152.529 20.416Z" fill="#B70217"/>
  <path d="M99.5496 3.84618V7.46967H101.253V6.88403H100.18V3.84618H99.5496Z" fill="#010000"/>
  <path d="M101.891 3.84618V7.25653H103.807V6.68758H102.496V5.68434H103.807V5.12464H102.496V4.41177H103.807V3.84618H101.891Z" fill="#010000"/>
  <path d="M105.432 5.85878L105.944 4.61305L106.453 5.85878L107.011 7.25653H107.64L106.265 3.84618H105.617L104.233 7.25653H104.863C104.883 7.20416 105.432 5.85878 105.432 5.85878Z" fill="#010000"/>
  <path d="M108.278 3.84703V7.25653H109.118C109.614 7.25653 109.966 7.2296 110.164 7.17323C110.367 7.11432 110.555 7.01251 110.712 6.87367C110.886 6.7239 111.023 6.5371 111.112 6.32758C111.342 5.77392 111.3 5.14789 110.999 4.62872C110.845 4.3704 110.617 4.16172 110.342 4.0313C110.076 3.90929 109.659 3.84618 109.105 3.84618L108.278 3.84703ZM108.916 4.40237H109.215C109.686 4.40237 110.034 4.49998 110.251 4.69015C110.49 4.90219 110.611 5.20342 110.611 5.58459C110.619 5.80337 110.567 6.01962 110.461 6.21315C110.372 6.37302 110.234 6.5026 110.067 6.58254C109.907 6.6549 109.652 6.69192 109.309 6.69192H108.917L108.916 4.40237Z" fill="#010000"/>
  <path d="M111.898 3.84618V7.46967H113.814V6.86382H112.503V5.80067H113.814V5.20555H112.503V4.44667H113.814V3.84618H111.898Z" fill="#010000"/>
  <path d="M117.851 3.88987C117.682 4.04587 117.584 4.27853 117.584 4.52382C117.589 4.71049 117.645 4.88994 117.745 5.03874C117.855 5.21459 118.102 5.46889 118.483 5.79533C118.629 5.91166 118.763 6.04513 118.884 6.19302C118.944 6.27238 118.978 6.37248 118.982 6.47618C118.979 6.5889 118.93 6.69441 118.848 6.76024C118.757 6.8405 118.643 6.88198 118.527 6.87838C118.302 6.87838 118.106 6.70794 117.929 6.39412L117.433 6.71064C117.537 6.9388 117.689 7.13448 117.878 7.27877C118.069 7.40772 118.29 7.47355 118.514 7.46814C118.79 7.48347 119.061 7.38247 119.274 7.18408C119.461 7.00192 119.567 6.73589 119.562 6.45724C119.562 6.31296 119.533 6.17048 119.476 6.04062C119.405 5.88822 119.31 5.75115 119.195 5.63572L118.731 5.20917C118.554 5.06038 118.386 4.89716 118.231 4.72041L118.161 4.5148C118.164 4.43274 118.201 4.35699 118.261 4.3101C118.332 4.25058 118.418 4.22082 118.506 4.22443C118.69 4.22443 118.869 4.35519 119.042 4.59416L119.475 4.18926C119.34 4.01521 119.179 3.87003 118.999 3.75911C118.848 3.67614 118.682 3.63376 118.514 3.63376C118.272 3.62384 118.035 3.71492 117.851 3.88987Z" fill="#010000"/>
  <path d="M121.904 3.63303V7.25652H123.607V6.67168H122.534V3.63303H121.904Z" fill="#9A999D"/>
  <path d="M124.246 3.84618V7.25653H126.162V6.68758H124.851V5.68434H126.162V5.12464H124.851V4.41177H126.162V3.84618H124.246Z" fill="#9A999D"/>
  <path d="M130.876 4.26813C130.58 4.60705 130.415 5.06012 130.42 5.53104C130.419 5.87887 130.504 6.22046 130.667 6.51835C130.828 6.81802 131.06 7.06151 131.339 7.22205C131.639 7.39061 131.972 7.47534 132.308 7.4691C132.614 7.47712 132.918 7.39953 133.191 7.24345C133.444 7.08916 133.655 6.86351 133.802 6.58881C133.956 6.31589 134.038 6.00106 134.039 5.67998C134.039 5.67998 134.039 5.61398 134.039 5.56939H132.327V6.14911H133.386L133.356 6.21511C133.269 6.42292 133.128 6.59773 132.951 6.71813C132.762 6.83051 132.55 6.88581 132.336 6.87867C131.989 6.88848 131.652 6.74846 131.397 6.48892C131.152 6.24722 131.012 5.90028 131.017 5.53728C131.012 5.18499 131.147 4.84875 131.384 4.61418C131.631 4.36178 131.957 4.22621 132.293 4.23603C132.689 4.23781 133.067 4.4144 133.344 4.72567L133.763 4.29132C133.586 4.08619 133.375 3.92119 133.141 3.80703C132.87 3.6893 132.58 3.63044 132.288 3.63311C131.711 3.63311 131.236 3.84449 130.876 4.26813Z" fill="#9A999D"/>
  <path d="M136.417 3.84618V6.05575C136.427 6.22746 136.409 6.40002 136.364 6.56565C136.325 6.66451 136.255 6.74603 136.167 6.79893C136.066 6.86136 135.951 6.89345 135.833 6.88998C135.725 6.89345 135.616 6.8657 135.521 6.80933C135.436 6.75904 135.37 6.68099 135.331 6.58733C135.286 6.44425 135.267 6.29336 135.275 6.14247V3.84618H134.678V5.96123C134.678 6.38441 134.717 6.68879 134.797 6.86223C134.886 7.0452 135.024 7.19696 135.194 7.29582C135.394 7.41549 135.621 7.47533 135.849 7.46925C136.021 7.47272 136.193 7.44237 136.354 7.3782C136.499 7.31663 136.628 7.22037 136.734 7.0981C136.836 6.9871 136.913 6.85356 136.958 6.70614C137.007 6.46159 137.027 6.21098 137.017 5.96036V3.84618H136.417Z" fill="#9A999D"/>
  <path d="M138.084 3.84618V7.25653H139.998V6.68758H138.691V5.68434H140V5.12464H138.691V4.41177H140V3.84618H138.084Z" fill="#9A999D"/>
  <path d="M127.652 5.7645L127.439 5.97764L127.652 5.7645Z" fill="white"/>
  <path d="M127.788 5.85692L128.299 4.61282L128.808 5.85692L129.365 7.25232H129.994L128.619 3.84618H127.973L126.588 7.25653H127.217C127.24 7.20693 127.788 5.85692 127.788 5.85692Z" fill="#9A999D"/>
  <path d="M114.665 3.63396V7.46966H115.297V5.80485H115.444L116.317 7.46966H117.007L116.103 5.74602L116.156 5.72735C116.364 5.66292 116.549 5.53127 116.686 5.35013C116.806 5.16899 116.868 4.95143 116.86 4.72827C116.865 4.51165 116.81 4.2969 116.703 4.11389C116.603 3.94675 116.458 3.8179 116.288 3.74507C116.113 3.67131 115.813 3.63303 115.395 3.63303L114.665 3.63396ZM115.297 4.26982H115.546C115.688 4.26142 115.829 4.27636 115.966 4.3137L116.164 4.46777L116.238 4.71987C116.248 4.85806 116.19 4.99065 116.086 5.07095C115.989 5.14004 115.822 5.16805 115.576 5.16805H115.297V4.26982Z" fill="#010000"/>
  <path fill-rule="evenodd" clip-rule="evenodd" d="M96.8328 3.9894C95.9328 3.34335 94.7126 3.59999 94.1081 4.56226C93.5037 5.52454 93.7439 6.82837 94.6443 7.47395C95.5448 8.12 96.7649 7.86336 97.369 6.90109C97.9721 5.93835 97.7323 4.63592 96.8328 3.9894ZM97.1222 6.91141C96.5772 7.77938 95.477 8.01115 94.6643 7.42891C93.8521 6.84619 93.6356 5.66998 94.1806 4.80201C94.7261 3.93404 95.8264 3.70274 96.6386 4.28545C97.4498 4.86863 97.6663 6.04344 97.1222 6.91141Z" fill="#A21E3B"/>
  <path fill-rule="evenodd" clip-rule="evenodd" d="M96.4383 4.98266C96.4383 4.98266 96.4383 4.97844 96.4383 4.97656C96.4383 4.97468 96.4383 4.96718 96.4383 4.96295C96.437 4.95779 96.4356 4.9531 96.4332 4.94841L96.5568 4.60404L96.2609 4.85035L95.9049 4.58855L96.0559 5.00471L95.6972 5.27026L95.9788 5.29091C95.7442 5.57194 95.4961 5.83984 95.2354 6.09366C94.834 6.48683 94.4083 6.85137 93.9614 7.18449C93.9725 7.20419 93.9855 7.22296 94.0004 7.23938C94.3465 6.98556 94.8414 6.606 95.2777 6.23347C95.5983 5.96276 95.9026 5.67047 96.1893 5.35894L96.2892 5.6015L96.3515 5.31436L96.9132 5.33595L96.4383 4.98266Z" fill="#010000"/>
  <path fill-rule="evenodd" clip-rule="evenodd" d="M95.661 5.1816L95.1085 5.13562L95.0718 4.8438L94.9296 5.12155L94.4678 5.09856L94.7935 5.40493L94.7545 5.48938C94.4162 5.89099 93.7007 6.54408 93 7.07846C93.0177 7.11224 93.0265 7.12773 93.0265 7.12773C93.0265 7.12773 94.1188 6.36861 94.8293 5.67095L94.9803 5.58227L95.1843 5.76009L95.1513 5.48422L95.661 5.1816Z" fill="#010000"/>
  <path fill-rule="evenodd" clip-rule="evenodd" d="M96.803 6.46713L96.3426 6.34186L96.2748 6.02798L96.1642 6.2987L95.6192 6.16827L96.0169 6.59803C95.6875 6.94615 95.0727 7.41392 94.2856 7.89623C94.2921 7.91453 94.3024 7.93142 94.3158 7.94502C94.8771 7.62692 95.418 7.26988 95.936 6.87625L96.1776 6.77068L96.4824 7.09676L96.4058 6.65808L96.803 6.46713Z" fill="#010000"/>
  <path fill-rule="evenodd" clip-rule="evenodd" d="M25.2718 3.27405C19.3376 -0.848305 11.2925 0.789261 7.30676 6.92938C3.321 13.0695 4.90489 21.3891 10.8422 25.5084C16.7794 29.6308 24.8245 27.9932 28.8072 21.8531C32.7837 15.71 31.2029 7.3994 25.2718 3.27405ZM27.1804 21.919C23.5868 27.4573 16.3322 28.9362 10.9739 25.221C5.61871 21.5028 4.19107 13.9976 7.78468 8.45918C11.3814 2.92079 18.636 1.44489 23.9912 5.16309C29.3402 8.88428 30.7679 16.3806 27.1804 21.919Z" fill="#A21E3B"/>
  <path fill-rule="evenodd" clip-rule="evenodd" d="M22.6707 9.61183C22.6707 9.61183 22.6707 9.58489 22.6707 9.57292C22.6707 9.56094 22.6707 9.51304 22.6707 9.4861C22.6615 9.45317 22.6523 9.42323 22.637 9.39329L23.4519 7.1959L21.5004 8.7676L19.1537 7.09711L20.1494 9.75254L17.7843 11.447L19.6408 11.5787C18.0937 13.3719 16.4577 15.0814 14.739 16.701C12.0921 19.2097 9.28581 21.5358 6.33862 23.6614C6.41215 23.7871 6.49793 23.9069 6.59597 24.0116C8.87835 22.392 12.1411 19.9701 15.0178 17.5931C17.1317 15.8657 19.1384 14.0006 21.0286 12.0128L21.6873 13.5606L22.0978 11.7284L25.8017 11.8661L22.6707 9.61183Z" fill="#010000"/>
  <path fill-rule="evenodd" clip-rule="evenodd" d="M17.5453 10.8812L13.9027 10.5878L13.6606 8.72575L12.7232 10.498L9.67794 10.3513L11.8255 12.3062L11.5682 12.8451C9.33788 15.4077 4.61992 19.575 0 22.9848C0.116418 23.2004 0.174626 23.2992 0.174626 23.2992C0.174626 23.2992 7.37717 18.4553 12.0614 14.0037L13.0571 13.4379L14.402 14.5725L14.1845 12.8122L17.5453 10.8812Z" fill="#010000"/>
  <path fill-rule="evenodd" clip-rule="evenodd" d="M25.0757 19.084L22.0396 18.2847L21.5924 16.2819L20.8632 18.0092L17.2696 17.177L19.8921 19.9192C17.72 22.1406 13.6668 25.1253 8.47705 28.2029C8.51994 28.3196 8.58734 28.4274 8.67619 28.5142C12.377 26.4845 15.9431 24.2062 19.359 21.6945L20.9521 21.0209L22.9618 23.1016L22.4563 20.3024L25.0757 19.084Z" fill="#010000"/>
</svg>
